<svg width="46" height="37" viewBox="0 0 46 37" fill="none" xmlns="http://www.w3.org/2000/svg">
<path d="M45.3009 4.6683C43.6657 5.39288 41.909 5.88247 40.0623 6.10376C41.9463 4.97576 43.3915 3.18584 44.073 1.05518C42.3105 2.10093 40.358 2.86076 38.2803 3.26809C36.6157 1.49776 34.2461 0.389343 31.6219 0.389343C26.5851 0.389343 22.5 4.47443 22.5 9.51518C22.5 10.228 22.5823 10.9213 22.735 11.591C15.1504 11.2091 8.43134 7.57643 3.93109 2.05784C3.14775 3.40909 2.69734 4.97576 2.69734 6.64426C2.69734 9.80893 4.30904 12.6035 6.755 14.2387C5.25884 14.1897 3.85275 13.7804 2.62292 13.097V13.2145C2.62292 17.6344 5.76604 21.322 9.94121 22.1601C9.17354 22.3677 8.36867 22.4774 7.53834 22.4774C6.95084 22.4774 6.37704 22.4226 5.82088 22.3168C6.98217 25.9397 10.3505 28.5796 14.3435 28.6501C11.22 31.098 7.28571 32.5569 3.01263 32.5569C2.27629 32.5569 1.54975 32.5138 0.834961 32.4296C4.87304 35.0205 9.66704 36.5284 14.8175 36.5284C31.6004 36.5284 40.7752 22.6282 40.7752 10.5727C40.7752 10.181 40.7654 9.78542 40.7478 9.39376C42.5298 8.10517 44.0769 6.5013 45.297 4.67418L45.3009 4.6683Z" fill="#1DA1F2"/>
</svg>
